<?xml version="1.0" encoding="UTF-8"?>
<svg enable-background="new 0 0 32.58 31.77" version="1.1" viewBox="0 0 32.58 31.77" xml:space="preserve" xmlns="http://www.w3.org/2000/svg">
    <style type="text/css">
        .st0{fill-rule:evenodd;clip-rule:evenodd;fill:#FFFFFF;}
    </style>
    <path class="st0" d="m16.29 0c-9 0-16.29 7.29-16.29 16.29 0 7.2 4.67 13.3 11.14 15.46 0.81 0.15 1.11-0.35 1.11-0.79 0-0.39-0.01-1.41-0.02-2.77-4.53 0.98-5.49-2.18-5.49-2.18-0.74-1.88-1.81-2.39-1.81-2.39-1.48-1.01 0.11-0.99 0.11-0.99 1.63 0.12 2.5 1.68 2.5 1.68 1.45 2.49 3.81 1.77 4.74 1.35 0.15-1.05 0.57-1.77 1.03-2.18-3.61-0.4-7.41-1.8-7.41-8.04 0-1.78 0.63-3.23 1.68-4.37-0.17-0.42-0.73-2.07 0.15-4.31 0 0 1.37-0.44 4.48 1.67 1.3-0.36 2.69-0.54 4.08-0.55 1.38 0.01 2.78 0.19 4.08 0.55 3.11-2.11 4.48-1.67 4.48-1.67 0.89 2.24 0.33 3.9 0.16 4.31 1.04 1.14 1.67 2.59 1.67 4.37 0 6.26-3.81 7.63-7.44 8.04 0.58 0.5 1.11 1.5 1.11 3.02 0 2.18-0.02 3.93-0.02 4.47 0 0.44 0.29 0.94 1.12 0.78 6.47-2.16 11.13-8.26 11.13-15.45 0-9.01-7.29-16.3-16.29-16.3z"/>
</svg>
