<?xml version="1.0" encoding="UTF-8"?>
<svg enable-background="new 0 0 130.02 129.99" version="1.1" viewBox="0 0 130.02 129.99" xml:space="preserve" xmlns="http://www.w3.org/2000/svg">
    <style type="text/css">
        .st0{fill:url(#b);}
        .st1{fill:url(#a);}
        .st2{fill:#FFFFFF;}
    </style>
        <radialGradient id="b" cx="-247.57" cy="-245.7" r="65" gradientTransform="matrix(0 -1.982 -1.8439 0 -418.52 -350.68)" gradientUnits="userSpaceOnUse">
        <stop stop-color="#fd5" offset="0"/>
            <stop stop-color="#fd5" offset=".1"/>
            <stop stop-color="#FF543E" offset=".5"/>
            <stop stop-color="#C837AB" offset="1"/>
    </radialGradient>
        <path class="st0" d="m65.03 0c-27.14 0-35.08 0.03-36.62 0.16-5.57 0.46-9.04 1.34-12.81 3.22-2.91 1.45-5.2 3.12-7.47 5.47-4.13 4.28-6.63 9.54-7.54 15.81-0.44 3.04-0.56 3.66-0.59 19.18-0.01 5.18 0 11.99 0 21.12 0 27.12 0.03 35.05 0.16 36.59 0.45 5.42 1.3 8.83 3.1 12.56 3.44 7.14 10.01 12.5 17.75 14.5 2.68 0.69 5.64 1.07 9.44 1.25 1.61 0.07 18.02 0.12 34.44 0.12s32.84-0.02 34.41-0.1c4.4-0.21 6.96-0.55 9.78-1.28 7.79-2.01 14.24-7.29 17.75-14.53 1.76-3.64 2.66-7.18 3.06-12.32 0.09-1.12 0.12-18.98 0.12-36.81 0-17.84-0.04-35.66-0.13-36.78-0.41-5.22-1.3-8.73-3.13-12.44-1.5-3.04-3.15-5.3-5.57-7.62-4.28-4.1-9.54-6.6-15.81-7.5-3.04-0.44-3.64-0.57-19.18-0.6h-21.16z"/>
        <radialGradient id="a" cx="324.77" cy="35.017" r="65" gradientTransform="matrix(.1739 .8687 3.5818 -.7172 -203.7 -247.66)" gradientUnits="userSpaceOnUse">
        <stop stop-color="#3771C8" offset="0"/>
            <stop stop-color="#3771C8" offset=".128"/>
            <stop stop-color="#60f" stop-opacity="0" offset="1"/>
    </radialGradient>
    <path class="st1" d="m65.03 0c-27.14 0-35.08 0.03-36.62 0.16-5.57 0.46-9.04 1.34-12.81 3.22-2.91 1.45-5.2 3.12-7.47 5.47-4.13 4.28-6.63 9.54-7.54 15.81-0.44 3.04-0.56 3.66-0.59 19.18-0.01 5.18 0 11.99 0 21.12 0 27.12 0.03 35.05 0.16 36.59 0.45 5.42 1.3 8.83 3.1 12.56 3.44 7.14 10.01 12.5 17.75 14.5 2.68 0.69 5.64 1.07 9.44 1.25 1.61 0.07 18.02 0.12 34.44 0.12s32.84-0.02 34.41-0.1c4.4-0.21 6.96-0.55 9.78-1.28 7.79-2.01 14.24-7.29 17.75-14.53 1.76-3.64 2.66-7.18 3.06-12.32 0.09-1.12 0.12-18.98 0.12-36.81 0-17.84-0.04-35.66-0.13-36.78-0.41-5.22-1.3-8.73-3.13-12.44-1.5-3.04-3.15-5.3-5.57-7.62-4.28-4.1-9.54-6.6-15.81-7.5-3.04-0.44-3.64-0.57-19.18-0.6h-21.16z"/>
    <path class="st2" d="m65 17c-13.04 0-14.67 0.06-19.79 0.29-5.11 0.23-8.6 1.04-11.65 2.23-3.16 1.23-5.83 2.87-8.5 5.53-2.67 2.67-4.31 5.35-5.54 8.5-1.19 3.05-2 6.54-2.23 11.65-0.23 5.13-0.29 6.76-0.29 19.8s0.06 14.67 0.29 19.79c0.24 5.11 1.04 8.6 2.23 11.65 1.23 3.16 2.87 5.83 5.54 8.5s5.34 4.31 8.5 5.54c3.05 1.19 6.54 2 11.65 2.23 5.12 0.23 6.76 0.29 19.79 0.29 13.04 0 14.67-0.06 19.79-0.29 5.11-0.23 8.6-1.04 11.66-2.23 3.16-1.23 5.83-2.87 8.5-5.54s4.31-5.35 5.54-8.5c1.18-3.05 1.99-6.54 2.23-11.65 0.23-5.12 0.29-6.75 0.29-19.79s-0.06-14.67-0.29-19.79c-0.24-5.11-1.05-8.6-2.23-11.65-1.23-3.16-2.87-5.83-5.54-8.5s-5.34-4.31-8.5-5.53c-3.06-1.19-6.55-2-11.66-2.23-5.14-0.24-6.77-0.3-19.81-0.3h0.02zm-4.31 8.65h4.31c12.82 0 14.33 0.05 19.4 0.28 4.68 0.21 7.22 1 8.91 1.65 2.24 0.87 3.84 1.91 5.52 3.59s2.72 3.28 3.59 5.52c0.66 1.69 1.44 4.23 1.65 8.91 0.23 5.06 0.28 6.58 0.28 19.39s-0.05 14.33-0.28 19.39c-0.21 4.68-1 7.22-1.65 8.91-0.87 2.24-1.91 3.83-3.59 5.51s-3.28 2.72-5.52 3.59c-1.69 0.66-4.23 1.44-8.91 1.65-5.06 0.23-6.58 0.28-19.4 0.28s-14.34-0.05-19.4-0.28c-4.68-0.22-7.22-1-8.91-1.65-2.24-0.87-3.84-1.91-5.52-3.59s-2.72-3.28-3.59-5.52c-0.66-1.69-1.44-4.23-1.65-8.91-0.23-5.06-0.28-6.58-0.28-19.4s0.05-14.33 0.28-19.39c0.21-4.68 1-7.22 1.65-8.91 0.87-2.24 1.91-3.84 3.59-5.52s3.28-2.72 5.52-3.59c1.69-0.66 4.23-1.44 8.91-1.66 4.43-0.2 6.14-0.26 15.09-0.27v0.02zm29.93 7.97c-3.18 0-5.76 2.58-5.76 5.76s2.58 5.76 5.76 5.76 5.76-2.58 5.76-5.76-2.58-5.76-5.76-5.76zm-25.62 6.73c-13.61 0-24.65 11.04-24.65 24.65s11.04 24.65 24.65 24.65 24.65-11.03 24.65-24.65-11.04-24.65-24.65-24.65zm0 8.65c8.84 0 16 7.16 16 16s-7.16 16-16 16-16-7.16-16-16 7.16-16 16-16z"/>
</svg>
