<?xml version="1.0" encoding="UTF-8"?>
<svg enable-background="new 0 0 26 28" version="1.1" viewBox="0 0 26 28" xml:space="preserve" xmlns="http://www.w3.org/2000/svg">
    <style type="text/css">
        .st0{fill:#14BF96;}
        .st1{fill:#FFFFFF;}
    </style>
    <path class="st0" d="M1.6,5.8C0.7,6.4,0.1,7.5,0,8.6v10.8c0.1,1.1,0.7,2.2,1.6,2.8l9.7,5.4c1,0.5,2.3,0.5,3.3,0l9.7-5.4  c1-0.6,1.6-1.7,1.6-2.8V8.6c-0.1-1.1-0.7-2.2-1.6-2.8l-9.7-5.4c-1-0.5-2.3-0.5-3.3,0L1.6,5.8z"/>
    <path class="st1" d="m23 11.3c-5.4 0-9.4 4.5-9.4 9.9v0.2h-1.1v-0.2c0-5.5-4-9.9-9.4-9.9v1c0 4.1 2.5 7.9 6.4 9.3 1.2 0.4 2.4 0.6 3.6 0.6s2.5-0.2 3.6-0.6c3.9-1.5 6.4-5.2 6.4-9.3-0.1-0.3-0.1-0.6-0.1-1z"/>
    <circle class="st1" cx="13" cy="8.7" r="3"/>
</svg>
