<?xml version="1.0" encoding="UTF-8"?>
<svg enable-background="new 0 0 75.77 76.25" version="1.1" viewBox="0 0 75.77 76.25" xml:space="preserve" xmlns="http://www.w3.org/2000/svg">
    <style type="text/css">
        .st0{fill:#2867B2;}
        .st1{fill-rule:evenodd;clip-rule:evenodd;fill:#FFFFFF;}
        .st2{fill:#006699;}
    </style>

    <g transform="translate(-200.55 -393.96)">
        <g transform="matrix(1.0188 0 0 -1.0188 170.6 498.03)">
            <path class="st0" d="m29.4 96.79c0 2.96 2.46 5.36 5.5 5.36h63.38c3.04 0 5.5-2.4 5.5-5.36v-64.12c0-2.96-2.46-5.36-5.5-5.36h-63.39c-3.04 0-5.5 2.4-5.5 5.36v64.12z"/>
            <path class="st1" d="m51.94 39.5v33.79h-11.23v-33.79h11.23zm-5.61 38.41c3.92 0 6.36 2.6 6.36 5.84-0.07 3.32-2.44 5.84-6.28 5.84s-6.35-2.52-6.35-5.84c0-3.24 2.44-5.84 6.21-5.84h0.06z"/>
            <path class="st1" d="m58.16 39.5h11.23v18.87c0 1.01 0.07 2.02 0.37 2.74 0.81 2.02 2.66 4.11 5.76 4.11 4.06 0 5.69-3.1 5.69-7.64v-18.08h11.23v19.38c0 10.38-5.54 15.21-12.93 15.21-6.06 0-8.72-3.39-10.2-5.69h0.08v4.9h-11.23c0.14-3.18 0-33.8 0-33.8z"/>
        </g>
    </g>
    <path class="st2" d="m-119.52 44.32"/>
</svg>
