<?xml version="1.0" encoding="UTF-8"?>
<svg enable-background="new 0 0 2498 2499.94" version="1.1" viewBox="0 0 2498 2499.9" xml:space="preserve" xmlns="http://www.w3.org/2000/svg">
    <style type="text/css">
        .st0{fill:#FFFC00;}
        .st1{fill:#FFFFFF;}
        .st2{fill:#020202;}
        .st3{fill:none;}
    </style>
    <path class="st0" d="m0 1864.1v0.11c1.5 55.49 1.96 111.31 11.32 166.47 9.92 58.35 24.1 115.25 51.15 168.21 36.57 71.68 86.8 132.21 150.21 181.66 45.52 35.51 95.25 63.69 150.3 81.47 80.27 25.89 163.08 35.82 247.1 36.3 52.42 0.33 104.81 1.64 157.24 1.42 380.82-1.6 761.65 2.75 1142.5-2.35 50.54-0.69 100.24-6.85 149.84-15.92 95.06-17.4 179.08-57.96 250.96-122.09 83.77-74.72 140.29-166.16 165.8-276.52 16.7-72.14 20.87-145.32 21.59-218.77v-14.65c0-5.68-2.16-1247.9-2.36-1264.3-0.56-45.1-3.88-89.87-12.34-134.25-10.28-54.08-24.81-106.78-50.71-155.71-27.34-51.69-61.6-98.17-103.96-138.79-64.89-62.23-139.78-106.23-226.96-129.51-78.74-21.02-159.08-25.67-240-25.6-0.13-0.02-0.44-0.84-0.46-1.24h-1224.8c-0.02 0.42-0.04 0.84-0.07 1.24-45.93 0.84-91.92 0.5-137.61 6.16-50.05 6.22-99.63 15.59-147 33.09-74.62 27.6-139.46 70.59-194.84 127.99-62.76 65.03-106.99 140.23-130.45 227.8-20.94 78.14-25.5 157.82-25.61 238.07"/>
    <path class="st1" d="m1260.3 2109.2c-5.19 0-10.14-0.19-13.9-0.37-2.99 0.26-6.07 0.37-9.16 0.37-108.99 0-181.87-51.53-246.18-97.02-46.1-32.56-89.57-63.3-140.5-71.77-25.01-4.15-49.89-6.25-73.93-6.25-43.32 0-77.55 6.72-102.54 11.61-15.38 3-28.64 5.58-38.89 5.58-10.74 0-23.78-2.38-29.21-20.94-4.31-14.64-7.4-28.83-10.38-42.49-7.46-34.14-12.87-54.97-25.65-56.95-136.7-21.09-217.47-52.16-233.56-89.79-1.63-3.76-2.6-7.78-2.84-11.87-0.63-11.2 7.28-21.06 18.35-22.88 108.56-17.88 205.09-75.26 286.92-170.6 63.39-73.81 94.52-144.34 97.86-152.12 0.15-0.36 0.31-0.71 0.49-1.05 15.77-32 18.91-59.66 9.36-82.17-17.61-41.54-75.95-60.05-114.55-72.29-9.6-3.04-18.68-5.91-25.91-8.78-34.21-13.51-90.48-42.07-82.98-81.48 5.46-28.74 43.47-48.75 74.19-48.75 8.53 0 16.09 1.5 22.45 4.48 34.71 16.26 65.94 24.51 92.8 24.51 33.4 0 49.53-12.72 53.44-16.33-1.01-18.24-2.11-36.48-3.3-54.71-7.84-124.72-17.62-279.94 22.08-368.95 118.83-266.43 370.83-287.15 445.22-287.15 12.28-0.1 24.55-0.22 36.83-0.34 74.59 0 327.12 20.74 446.02 287.34 39.7 89.07 29.91 244.41 22.05 369.27l-0.37 5.98c-1.08 16.95-2.07 33-2.91 48.55 3.67 3.38 18.44 15.04 48.47 16.22 25.61-0.98 55.03-9.19 87.43-24.36 10.02-4.7 21.11-5.68 28.64-5.68 11.38 0 22.96 2.22 32.61 6.24l0.52 0.2c27.49 9.76 45.5 29.26 45.89 49.75 0.34 19.1-13.85 47.65-83.67 75.22-7.15 2.83-16.27 5.73-25.91 8.78-38.63 12.26-96.92 30.76-114.53 72.27-9.57 22.52-6.42 50.16 9.36 82.15 0.17 0.35 0.33 0.7 0.5 1.07 4.86 11.39 122.44 279.49 384.78 322.71 11.06 1.83 18.97 11.69 18.35 22.88-0.26 4.13-1.24 8.18-2.91 11.97-15.98 37.42-96.74 68.45-233.48 89.57-12.83 1.98-18.24 22.72-25.63 56.68-3.06 14.02-6.17 27.77-10.42 42.22-3.98 13.59-12.83 20.23-27.04 20.23h-2.14c-9.25 0-22.37-1.68-38.9-4.92-28.9-5.63-61.32-10.86-102.54-10.86-24.04 0-48.91 2.11-73.95 6.25-50.88 8.47-94.34 39.16-140.35 71.69-64.5 45.55-137.4 97.08-246.38 97.08"/>
    <path class="st2" d="m1266.8 412.66c70.22 0 312.02 18.86 425.97 274.33 37.52 84.12 27.9 236.5 20.19 358.91-1.2 19.43-2.4 38.25-3.37 56.23l-0.41 7.73 5.16 5.76c2.08 2.31 21.59 22.7 64.97 24.37l0.7 0.04 0.73-0.01c28.68-1.09 60.98-10 96.07-26.44 5.17-2.42 12.05-3.6 19.32-3.6 8.29 0 17.1 1.56 24.37 4.62l1.1 0.44c18.4 6.45 31.4 18.6 31.6 29.6 0.11 6.22-4.54 28.62-69.75 54.38-6.37 2.52-14.76 5.19-24.49 8.26-42.44 13.48-106.55 33.81-128.13 84.66-12.15 28.64-8.82 62.44 9.88 100.45 7.69 17.96 128.83 290.81 401.4 335.72-0.09 1.51-0.47 3-1.11 4.37-4.62 10.88-33.98 48.48-216.71 76.67-28.59 4.38-35.6 36.43-43.72 73.69-2.93 13.34-5.92 26.81-10.02 40.71-1.25 4.2-1.49 4.44-5.99 4.44h-2.15c-8.1 0-20.4-1.68-34.66-4.48-25.96-5.06-61.44-11.26-106.78-11.26-25.31 0-51.38 2.2-77.54 6.57-55.92 9.3-101.39 41.46-149.55 75.5-64.68 45.7-131.52 92.99-233.52 92.99-4.45 0-8.8-0.15-13.16-0.37l-1.15-0.05-1.15 0.09c-2.5 0.22-5.02 0.33-7.6 0.33-101.98 0-168.85-47.28-233.5-92.99-48.17-34.04-93.67-66.21-149.57-75.5-26.13-4.35-52.23-6.57-77.52-6.57-45.34 0-80.85 6.94-106.76 12-14.26 2.79-26.6 5.18-34.68 5.18-6.62 0-6.74-0.39-8.14-5.17-4.1-13.92-7.1-27.7-10.02-41.02-8.14-37.3-15.15-69.52-43.73-73.91-182.71-28.22-212.08-65.88-216.72-76.73-0.63-1.41-1.01-2.92-1.12-4.46 272.57-44.88 393.68-317.73 401.39-335.76 18.74-37.98 22.06-71.77 9.87-100.45-21.58-50.82-85.68-71.18-128.09-84.63-9.75-3.08-18.14-5.77-24.52-8.28-55.07-21.76-72.01-43.68-69.49-56.96 2.92-15.32 29.47-30.89 52.64-30.89 5.21 0 9.77 0.84 13.15 2.42 37.63 17.64 71.99 26.58 102.12 26.58 47.37 0 68.45-22.04 70.71-24.56l5.13-5.74-0.41-7.69c-0.96-17.97-2.14-36.79-3.38-56.18-7.69-122.44-17.31-274.72 20.2-358.85 113.52-254.53 354.14-274.15 425.17-274.15 1.75 0 32.63-0.32 32.63-0.32 1.26 0 2.66-0.02 4.14-0.02m0-43.9h-0.08c-1.62 0-3.14 0-4.59 0.02l-32.22 0.32c-41.61 0-124.87 5.88-214.3 45.35-51.13 22.55-97.13 53.05-136.7 90.65-47.18 44.79-85.61 100.02-114.22 164.17-41.89 93.93-31.94 252.14-23.96 379.28l0.03 0.2c0.85 13.62 1.75 27.83 2.57 41.69-6.15 2.82-16.11 5.8-30.79 5.8-23.63 0-51.73-7.55-83.49-22.44-9.35-4.35-20.01-6.55-31.78-6.55-18.91 0-38.85 5.57-56.14 15.73-21.76 12.78-35.82 30.83-39.63 50.85-2.52 13.24-2.39 39.42 26.68 65.96 15.99 14.61 39.48 28.09 69.81 40.07 7.96 3.13 17.4 6.13 27.4 9.3 34.71 11.03 87.24 27.7 100.94 59.94 6.94 16.35 3.95 37.86-8.86 63.85-0.34 0.71-0.67 1.4-0.98 2.13-3.2 7.48-33.07 75.12-94.33 146.47-34.81 40.57-73.15 74.48-113.9 100.81-49.73 32.14-103.55 53.16-159.93 62.45-22.14 3.64-37.97 23.38-36.72 45.78 0.38 6.46 1.89 12.9 4.52 19.13l0.06 0.11c8.95 20.94 29.71 38.73 63.46 54.42 41.24 19.15 102.91 35.27 183.29 47.87 4.06 7.72 8.28 27.14 11.2 40.43 3.06 14.13 6.24 28.65 10.78 44.08 4.9 16.72 17.61 36.69 50.27 36.69 12.38 0 26.61-2.79 43.09-5.98 24.14-4.74 57.15-11.2 98.34-11.2 22.84 0 46.51 2.01 70.34 5.97 45.93 7.65 85.53 35.62 131.34 68.01 67.06 47.4 142.96 101.06 258.93 101.06 3.16 0 6.33-0.1 9.47-0.32 3.83 0.18 8.58 0.32 13.6 0.32 116 0 191.89-53.67 258.87-101.04l0.11-0.1c45.82-32.35 85.37-60.28 131.29-67.93 23.82-3.95 47.48-5.97 70.34-5.97 39.36 0 70.52 5.02 98.34 10.44 18.16 3.58 32.27 5.29 43.1 5.29l1.06 0.02h1.1c23.89 0 41.44-13.11 48.14-36.05 4.45-15.1 7.63-29.29 10.76-43.65 2.73-12.46 7.09-32.42 11.15-40.23 80.43-12.63 142.08-28.71 183.33-47.86 33.67-15.62 54.4-33.39 63.41-54.24 2.7-6.25 4.28-12.73 4.63-19.33 1.26-22.4-14.58-42.15-36.72-45.78-250.59-41.3-363.48-298.78-368.14-309.72-0.31-0.72-0.64-1.43-1-2.13-12.81-26.01-15.77-47.49-8.82-63.87 13.67-32.21 66.17-48.88 100.9-59.91 10.06-3.17 19.53-6.18 27.43-9.3 34.19-13.5 58.63-28.16 74.76-44.79 19.26-19.83 23.01-38.84 22.77-51.27-0.59-30.09-23.59-56.83-60.18-69.92-12.36-5.11-26.45-7.81-40.8-7.81-9.77 0-24.24 1.34-37.93 7.73-29.32 13.72-55.58 21.22-78.12 22.29-11.99-0.61-20.4-3.21-25.84-5.69 0.68-11.74 1.44-23.79 2.22-36.36l0.33-5.38c8.03-127.22 18.01-285.56-23.9-379.55-28.72-64.38-67.29-119.75-114.66-164.64-39.73-37.62-85.88-68.11-137.19-90.65-89.32-39.17-172.57-45.02-214.24-45.02"/>
    <path class="st3" d="M0,0.76h2498v2498H0V0.76z"/>
</svg>
