<?xml version="1.0" encoding="UTF-8"?>
<svg viewBox="0 0 408.31 443.47" xmlns="http://www.w3.org/2000/svg">
    <path d="M360.2 80.92c-14.7-8.3-38.16 5.05-52.42 29.84l-25.8 44.9c-9.43 18.66-8.14 40.88 3.82 58.03l.75 1.08c11.96 17.15 28 33 33.3 38.66 3.12 3.33 5.5 7.43 6.82 12.12 4.36 15.58-4.74 31.75-20.32 36.1s-31.75-4.74-36.1-20.32a29.13 29.13 0 0 1-.85-11.65c.84-6.44-1.23-16.93-10.46-27.22s-28.1 9.15-34.2 29.15l-.28.92c-6.1 20-9.95 37.45-8.8 39.13.7 1 1.32 2.05 1.9 3.15 8.56 16.1 2.44 36.1-13.66 44.67-16.1 8.56-36.1 2.44-44.67-13.66-8.56-16.1-2.44-36.1 13.66-44.67.72-.38 1.45-.74 2.2-1.06 1.23-.54 4.72-8.95 7.75-18.88l5.5-17.98a56.78 56.78 0 0 0 .86-3.14l16.3-58.2-17.43 35.8c-2.07-6.8-5.48-7.04-12.96-1.68-4.5 3.23-11.97 9.6-15.62 12.2-6.84 4.9-12.57 14.4-15.6 20.24-1.78 3.43-4.28 6.56-7.47 9.15-12.48 10.13-30.8 8.22-40.94-4.26s-8.22-30.8 4.26-40.93c3.66-2.97 7.82-4.9 12.13-5.84 7.33-1.6 32.27-16.83 47.3-27.58 2.7-1.92 4.95-3.74 6.78-5.43l40.12-30.47-34.94 18.88s-3.55-.36-7.9.12c-12.8 1.42-25.96 3.22-28.45 6.4-1.47 1.87-3.22 3.57-5.25 5.03-11.66 8.4-27.92 5.76-36.32-5.9-8.4-11.66-5.75-27.93 5.9-36.33 4.8-3.46 10.4-5.05 15.9-4.9 9.35.26 33.96 5.25 54.55 1.6l5.3-.94c20.6-3.65 45.24-21.57 55.06-40.03l21.48-37.73c11.86-20.84 11-43.66-1.95-50.98L225.94 5.02c-11.82-6.68-31.18-6.7-43-.03L21.5 96C9.68 102.67 0 119.24 0 132.82v177.83c0 13.58 9.68 30.16 21.5 36.83l161.42 91c11.83 6.67 31.2 6.66 43-.03L386.8 347.5c11.83-6.68 21.5-23.27 21.5-36.85V132.82c0-13.58-9.67-30.17-21.5-36.85.01 0-11.9-6.74-26.6-15.05z" fill="#6fbc6d"/>
</svg>
