<?xml version="1.0" encoding="UTF-8"?>
<svg enable-background="new 0 0 3624.93 3624.8" version="1.1" viewBox="0 0 3624.9 3624.8" xml:space="preserve" xmlns="http://www.w3.org/2000/svg">
    <style type="text/css">
        .st0{fill:#FFFFFF;}
        .st1{fill:#005A5F;}
        .st2{fill:#D4D600;}
    </style>

    <path class="st0" d="M3624.93,3474.8c0,82.5-67.5,150-150,150H150c-82.5,0-150-67.5-150-150V150C0,67.5,67.5,0,150,0h3324.93   c82.5,0,150,67.5,150,150V3474.8z"/>

    <path class="st1" d="m967.54 1047c-21.7 0-39.96 7.62-49.17 22.54-9.5 15.39-8.06 35.22 2.07 55.3l243.79 422.01c0.41 0.8 0.41 1.31 0 2.05l-383.1 676.05c-9.99 19.9-9.5 39.89 0 55.31 9.2 14.84 25.41 24.57 47.14 24.57h360.55c53.9 0 79.91-36.38 98.34-69.62 0 0 374.66-662.62 389.25-688.35-1.48-2.38-247.87-432.25-247.87-432.25-17.99-31.96-45.07-67.62-100.38-67.62h-360.62v0.01z"/>
    <path class="st2" d="m2482.3 553.24c-53.86 0-77.2 33.92-96.54 68.68 0 0-776.75 1377.5-802.35 1422.7 1.31 2.45 512.3 939.89 512.3 939.89 17.9 31.98 45.51 68.67 100.75 68.67h360.12c21.72 0 38.7-8.18 47.85-23.04 9.63-15.38 9.35-35.71-0.74-55.73l-508.3-928.69c-0.49-0.71-0.49-1.65 0-2.36l798.29-1411.5c10.04-19.93 10.25-40.25 0.76-55.65-9.2-14.85-26.23-23.04-47.95-23.04h-364.24v0.02h0.04l0.01 0.03z"/>
</svg>
